<?xml version="1.0" standalone="no"?>
<!DOCTYPE svg PUBLIC "-//W3C//DTD SVG 20010904//EN"
 "http://www.w3.org/TR/2001/REC-SVG-20010904/DTD/svg10.dtd">
<svg version="1.0" xmlns="http://www.w3.org/2000/svg"
 width="720.000000pt" height="720.000000pt" viewBox="0 0 720.000000 720.000000"
 preserveAspectRatio="xMidYMid meet">
<metadata>
Created by potrace 1.11, written by Peter Selinger 2001-2013
</metadata>
<g transform="translate(0.000000,720.000000) scale(0.100000,-0.100000)"
fill="#000000" stroke="none">
<path d="M0 3600 l0 -3600 3600 0 3600 0 0 3600 0 3600 -3600 0 -3600 0 0
-3600z m3745 2939 c637 -55 1168 -403 1449 -949 151 -295 218 -566 219 -890 1
-178 -15 -295 -59 -449 -75 -256 -161 -432 -524 -1061 -151 -261 -286 -500
-301 -530 -42 -84 -53 -161 -46 -328 6 -166 3 -180 -59 -252 -36 -41 -39 -48
-36 -96 2 -29 -1 -60 -6 -71 -7 -12 -5 -37 6 -79 14 -54 14 -65 1 -100 -13
-33 -13 -46 -1 -95 12 -49 12 -64 1 -101 -12 -36 -12 -52 0 -100 12 -52 12
-63 -3 -103 -10 -24 -30 -55 -45 -67 -23 -20 -26 -29 -23 -65 3 -36 -1 -46
-32 -80 -19 -22 -54 -48 -78 -59 -23 -10 -59 -37 -80 -60 -41 -44 -110 -86
-191 -114 -43 -15 -53 -23 -58 -47 -14 -69 -61 -122 -143 -165 -63 -33 -174
-31 -246 4 -64 32 -110 75 -142 137 -19 35 -33 47 -73 63 -61 24 -178 101
-204 134 -11 14 -46 42 -79 63 -32 21 -68 51 -80 66 -23 30 -29 84 -11 102 8
8 5 19 -11 40 -31 43 -36 100 -12 145 20 37 20 39 1 75 -24 47 -24 79 0 127
19 37 19 38 0 69 -20 34 -25 92 -9 117 6 10 3 21 -13 38 -16 17 -22 39 -25 90
-4 65 -6 69 -58 125 -68 73 -75 102 -64 233 11 120 0 237 -28 310 -10 27 -148
276 -307 554 -378 661 -444 794 -518 1040 -64 212 -86 408 -67 620 40 477 232
896 554 1215 140 139 263 227 441 314 306 152 618 210 960 180z"/>
<path d="M3325 6454 c-101 -16 -222 -45 -310 -76 -139 -48 -349 -154 -339
-170 3 -5 2 -8 -3 -7 -22 4 -35 -4 -81 -48 -27 -27 -74 -69 -105 -96 -78 -66
-206 -221 -299 -362 -146 -220 -215 -394 -255 -640 -20 -125 -29 -495 -14
-631 16 -154 89 -462 106 -447 4 5 5 3 1 -4 -3 -6 13 -56 38 -110 47 -105 77
-161 305 -573 280 -503 350 -635 367 -695 14 -45 19 -95 19 -197 0 -75 3 -131
7 -125 5 7 8 2 8 -13 1 -82 75 -185 156 -216 41 -16 47 -16 61 -1 14 14 14 22
-1 84 -12 47 -27 78 -48 100 l-31 32 7 92 c4 51 9 95 11 98 8 8 15 -5 17 -33
2 -18 7 -25 16 -21 8 3 17 5 22 5 8 0 -2 42 -53 210 -60 195 -254 843 -373
1241 -4 13 -14 15 -49 11 -87 -9 -135 34 -135 122 0 56 37 106 80 106 35 0 84
-53 101 -110 11 -37 15 -40 48 -40 20 0 88 -7 151 -16 190 -27 287 -7 369 75
69 69 131 219 131 318 0 29 -6 43 -25 57 -69 52 -154 210 -192 355 -36 143
-35 276 5 398 42 130 93 216 177 298 320 314 857 289 1166 -54 193 -213 234
-475 122 -761 -44 -111 -148 -255 -307 -425 -36 -38 -66 -74 -66 -78 0 -23 24
-47 56 -56 38 -11 71 -3 182 44 101 42 148 24 224 -88 l41 -61 19 44 c34 81
81 114 133 94 24 -10 45 -58 45 -104 0 -84 -49 -127 -135 -118 -35 4 -45 2
-49 -11 -3 -9 -100 -332 -215 -718 -116 -386 -211 -708 -211 -716 0 -8 14 -20
30 -27 17 -7 30 -19 30 -27 0 -8 -20 -84 -45 -169 -35 -116 -43 -158 -36 -173
6 -10 7 -21 4 -25 -10 -9 23 -7 52 4 46 18 172 151 186 198 6 23 15 40 19 37
3 -2 6 67 6 153 0 137 3 165 22 219 22 62 103 214 434 817 177 320 219 404
223 440 4 36 5 37 15 31 10 -6 14 6 10 39 -1 12 2 16 11 11 7 -5 10 -4 6 2 -3
5 12 64 33 131 74 231 95 396 87 677 -8 261 -45 441 -133 652 -69 167 -204
406 -250 444 -8 6 -14 18 -14 25 0 8 -4 14 -10 14 -5 0 -10 6 -10 14 0 25
-188 193 -303 270 -219 147 -463 240 -735 281 -122 19 -405 18 -527 -1z m-386
-3941 c1 -7 -3 -13 -9 -13 -5 0 -10 17 -9 38 1 33 2 34 9 12 4 -14 8 -31 9
-37z"/>
<path d="M3650 5569 c-152 -23 -276 -86 -373 -189 -111 -117 -157 -234 -158
-400 -2 -189 31 -262 193 -424 104 -106 118 -123 118 -154 0 -66 -81 -114
-140 -82 -17 9 -20 6 -25 -27 -14 -85 -51 -189 -85 -242 -50 -78 -102 -118
-184 -143 -71 -22 -73 -22 -335 -2 l-83 7 7 -34 c6 -29 310 -1048 406 -1363
l31 -98 38 6 39 6 36 -112 c20 -62 42 -118 48 -125 7 -7 47 -21 91 -32 43 -11
80 -22 83 -25 3 -3 -33 -3 -81 -1 -47 3 -86 4 -86 2 1 -21 58 -175 64 -170 4
4 4 0 1 -8 -7 -20 17 -25 210 -40 129 -10 266 -8 421 7 l61 6 43 142 c23 77
58 189 77 249 l34 107 39 -6 38 -6 32 103 c17 57 40 131 50 164 47 149 330
1097 345 1154 19 73 17 79 -42 168 -60 91 -109 102 -225 53 -94 -40 -155 -41
-200 -1 -18 15 -37 25 -43 21 -88 -69 -360 -337 -431 -425 -97 -120 -133 -199
-149 -329 -14 -115 -24 -138 -53 -120 -55 35 -36 268 34 406 77 153 186 288
454 563 285 292 357 384 441 558 83 174 76 312 -27 507 -75 142 -254 275 -424
314 -88 21 -211 27 -290 15z m-29 -2948 c43 -43 51 -84 25 -145 -40 -96 -176
-104 -220 -12 -44 93 14 196 112 196 38 0 50 -5 83 -39z"/>
<path d="M2427 4045 c-43 -42 -23 -138 31 -150 19 -4 40 -1 55 7 l25 13 -19
51 c-19 49 -51 94 -69 94 -5 0 -15 -7 -23 -15z"/>
<path d="M4721 4036 c-12 -13 -31 -46 -41 -74 l-19 -51 33 -11 c66 -21 115 25
101 97 -6 31 -28 63 -44 63 -4 0 -17 -11 -30 -24z"/>
<path d="M4213 1974 c-353 -105 -864 -108 -1231 -8 -68 19 -126 34 -128 34
-13 0 -1 -90 16 -118 28 -45 80 -66 245 -98 119 -23 174 -28 369 -32 535 -10
856 72 856 221 0 21 -3 37 -7 36 -5 -1 -58 -16 -120 -35z"/>
<path d="M4286 1820 c-48 -31 -205 -78 -316 -95 -167 -25 -519 -31 -670 -11
-137 18 -300 56 -366 86 l-43 18 -6 -28 c-9 -40 25 -101 77 -139 96 -71 255
-96 608 -96 273 1 344 9 539 61 112 30 171 56 206 91 20 21 25 35 25 79 0 60
-7 64 -54 34z"/>
<path d="M2900 1625 c-41 -109 54 -198 257 -240 177 -37 592 -37 792 0 189 35
343 91 375 137 10 14 16 43 16 75 0 52 -6 62 -25 44 -16 -15 -182 -71 -270
-91 -147 -33 -258 -44 -445 -44 -318 1 -523 34 -623 101 -27 18 -54 36 -59 39
-4 3 -13 -7 -18 -21z"/>
<path d="M2901 1431 c-30 -55 -3 -125 64 -171 106 -73 263 -100 585 -100 246
0 377 15 547 60 128 34 204 68 227 102 17 23 22 113 8 122 -4 2 -28 -4 -52
-15 -66 -30 -232 -76 -335 -95 -192 -34 -586 -28 -793 11 -74 14 -149 45 -209
85 -31 21 -32 21 -42 1z"/>
<path d="M2914 1214 c-22 -89 168 -164 471 -185 269 -19 497 -3 704 51 133 34
181 64 181 113 0 24 -3 28 -17 22 -52 -20 -240 -68 -318 -81 -132 -22 -388
-29 -556 -15 -231 20 -343 47 -419 101 -36 26 -38 25 -46 -6z m1343 -26 c-3
-8 -6 -5 -6 6 -1 11 2 17 5 13 3 -3 4 -12 1 -19z"/>
<path d="M3125 1006 c159 -132 438 -167 723 -91 89 24 204 74 140 60 -34 -7
-37 2 -5 16 21 9 20 9 -4 4 -15 -3 -91 -9 -170 -15 -191 -14 -607 11 -688 41
-25 9 -25 9 4 -15z"/>
<path d="M3370 843 c0 -3 14 -25 31 -50 55 -80 180 -119 281 -89 56 17 79 33
116 80 27 35 28 46 5 46 -16 0 -16 2 -3 11 11 8 8 9 -15 4 -58 -11 -301 -17
-357 -7 -32 5 -58 7 -58 5z"/>
</g>
</svg>
